<?xml version="1.0" encoding="UTF-8"?>
<svg width="46px" height="50px" viewBox="0 0 46 50" version="1.1" xmlns="http://www.w3.org/2000/svg" xmlns:xlink="http://www.w3.org/1999/xlink">
    <!-- Generator: Sketch 43.2 (39069) - http://www.bohemiancoding.com/sketch -->
    <title>calendar</title>
    <desc>Created with Sketch.</desc>
    <defs></defs>
    <g id="Page-1" stroke="none" stroke-width="1" fill="none" fill-rule="evenodd">
        <g id="lisadaniel.se" transform="translate(-771.000000, -665.000000)" fill-rule="nonzero" fill="#000000">
            <g id="Vi-gifter-oss" transform="translate(400.000000, 179.000000)">
                <g id="Group-2" transform="translate(105.000000, 486.000000)">
                    <g id="calendar" transform="translate(266.000000, 0.000000)">
                        <path d="M41.1629056,3.98684211 L41.1629056,2.09868421 C41.1629056,1.14342105 40.3901695,0.365789474 39.4409201,0.365789474 L38.0163923,0.365789474 C37.0671429,0.365789474 36.2944068,1.14342105 36.2944068,2.09868421 L36.2944068,3.94934211 L25.2002179,3.94934211 L25.2002179,2.09868421 C25.2002179,1.14342105 24.4274818,0.365789474 23.4782324,0.365789474 L22.0537046,0.365789474 C21.1044552,0.365789474 20.3317191,1.14342105 20.3317191,2.09868421 L20.3317191,3.94934211 L9.23753027,3.94934211 L9.23753027,2.09868421 C9.23753027,1.14342105 8.46479419,0.365789474 7.51554479,0.365789474 L6.0916707,0.365789474 C5.14242131,0.365789474 4.36968523,1.14342105 4.36968523,2.09868421 L4.36968523,4.01973684 C1.97694915,4.41118421 0.182397094,6.47960526 0.182397094,8.98552632 L0.182397094,44.5973684 C0.182397094,47.3743421 2.42803874,49.6342105 5.18687651,49.6342105 L40.5745278,49.6342105 C43.3346731,49.6342105 45.579661,47.3743421 45.579661,44.5973684 L45.579661,8.98552632 C45.5803148,6.40855263 43.6458596,4.28092105 41.1629056,3.98684211 Z M37.6025666,2.09868421 C37.6025666,1.86842105 37.7882324,1.68157895 38.017046,1.68157895 L39.4415738,1.68157895 C39.6703874,1.68157895 39.8560533,1.86842105 39.8560533,2.09868421 L39.8560533,7.11513158 C39.8560533,7.34539474 39.6703874,7.53223684 39.4415738,7.53223684 L38.017046,7.53223684 C37.7882324,7.53223684 37.6025666,7.34539474 37.6025666,7.11513158 L37.6025666,2.09868421 Z M21.6398789,2.09868421 C21.6398789,1.86842105 21.8255448,1.68157895 22.0543584,1.68157895 L23.4788862,1.68157895 C23.7076998,1.68157895 23.8933656,1.86842105 23.8933656,2.09868421 L23.8933656,7.11513158 C23.8933656,7.34539474 23.7076998,7.53223684 23.4788862,7.53223684 L22.0543584,7.53223684 C21.8255448,7.53223684 21.6398789,7.34539474 21.6398789,7.11513158 L21.6398789,2.09868421 Z M5.67784504,2.09868421 C5.67784504,1.86842105 5.8635109,1.68157895 6.09232446,1.68157895 L7.51619855,1.68157895 C7.74501211,1.68157895 7.93067797,1.86842105 7.93067797,2.09868421 L7.93067797,7.11513158 C7.93067797,7.34539474 7.74501211,7.53223684 7.51619855,7.53223684 L6.09232446,7.53223684 C5.8635109,7.53223684 5.67784504,7.34539474 5.67784504,7.11513158 L5.67784504,2.09868421 Z M4.37033898,5.35921053 L4.37033898,7.11447368 C4.37033898,8.06973684 5.14307506,8.84736842 6.09232446,8.84736842 L7.51619855,8.84736842 C8.46544794,8.84736842 9.23818402,8.06973684 9.23818402,7.11447368 L9.23818402,5.26447368 L20.3330266,5.26447368 L20.3330266,7.11447368 C20.3330266,8.06973684 21.1057627,8.84736842 22.0550121,8.84736842 L23.47954,8.84736842 C24.4287893,8.84736842 25.2015254,8.06973684 25.2015254,7.11447368 L25.2015254,5.26447368 L36.296368,5.26447368 L36.296368,7.11447368 C36.296368,8.06973684 37.0691041,8.84736842 38.0183535,8.84736842 L39.4428814,8.84736842 C40.3921308,8.84736842 41.1648668,8.06973684 41.1648668,7.11447368 L41.1648668,5.31578947 C42.92477,5.60065789 44.27477,7.13486842 44.27477,8.98486842 L44.27477,15.3875 L1.48990315,15.3875 L1.48990315,8.98486842 C1.48990315,7.20921053 2.71046005,5.73157895 4.37033898,5.35921053 Z M40.5745278,48.3184211 L5.18687651,48.3184211 C3.14847458,48.3184211 1.48990315,46.6493421 1.48990315,44.5973684 L1.48990315,16.7039474 L44.272155,16.7039474 L44.272155,44.5973684 C44.2728087,46.6493421 42.6142373,48.3184211 40.5745278,48.3184211 Z" id="Shape"></path>
                        <path d="M5.9720339,27.4756579 L13.3071429,27.4756579 L13.3071429,20.0947368 L5.9720339,20.0947368 L5.9720339,27.4756579 L5.9720339,27.4756579 Z M7.27953995,21.4105263 L11.9996368,21.4105263 L11.9996368,26.1598684 L7.27953995,26.1598684 L7.27953995,21.4105263 L7.27953995,21.4105263 Z" id="Shape"></path>
                        <path d="M14.7231719,27.4756579 L22.0576271,27.4756579 L22.0576271,20.0947368 L14.7231719,20.0947368 L14.7231719,27.4756579 Z M16.030678,21.4105263 L20.7501211,21.4105263 L20.7501211,26.1598684 L16.030678,26.1598684 L16.030678,21.4105263 Z" id="Shape"></path>
                        <path d="M23.4743099,27.4756579 L30.8094189,27.4756579 L30.8094189,20.0947368 L23.4743099,20.0947368 L23.4743099,27.4756579 Z M24.781816,21.4105263 L29.5019128,21.4105263 L29.5019128,26.1598684 L24.781816,26.1598684 L24.781816,21.4105263 Z" id="Shape"></path>
                        <path d="M5.9720339,36.4506579 L13.3071429,36.4506579 L13.3071429,29.0690789 L5.9720339,29.0690789 L5.9720339,36.4506579 L5.9720339,36.4506579 Z M7.27953995,30.3848684 L11.9996368,30.3848684 L11.9996368,35.1348684 L7.27953995,35.1348684 L7.27953995,30.3848684 L7.27953995,30.3848684 Z" id="Shape"></path>
                        <path d="M14.7231719,36.4506579 L22.0576271,36.4506579 L22.0576271,29.0690789 L14.7231719,29.0690789 L14.7231719,36.4506579 Z M16.030678,30.3848684 L20.7501211,30.3848684 L20.7501211,35.1348684 L16.030678,35.1348684 L16.030678,30.3848684 Z" id="Shape"></path>
                        <path d="M23.4743099,36.4506579 L30.8094189,36.4506579 L30.8094189,29.0690789 L23.4743099,29.0690789 L23.4743099,36.4506579 Z M24.781816,30.3848684 L29.5019128,30.3848684 L29.5019128,35.1348684 L24.781816,35.1348684 L24.781816,30.3848684 Z" id="Shape"></path>
                        <path d="M23.4743099,45.425 L30.8094189,45.425 L30.8094189,38.0440789 L23.4743099,38.0440789 L23.4743099,45.425 Z M24.781816,39.3598684 L29.5019128,39.3598684 L29.5019128,44.1092105 L24.781816,44.1092105 L24.781816,39.3598684 Z" id="Shape"></path>
                        <path d="M32.2254479,27.4756579 L39.5605569,27.4756579 L39.5605569,20.0947368 L32.2254479,20.0947368 L32.2254479,27.4756579 Z M33.532954,21.4105263 L38.2530508,21.4105263 L38.2530508,26.1598684 L33.532954,26.1598684 L33.532954,21.4105263 Z" id="Shape"></path>
                        <path d="M32.2254479,36.4506579 L39.5605569,36.4506579 L39.5605569,29.0690789 L32.2254479,29.0690789 L32.2254479,36.4506579 Z M33.532954,30.3848684 L38.2530508,30.3848684 L38.2530508,35.1348684 L33.532954,35.1348684 L33.532954,30.3848684 Z" id="Shape"></path>
                        <path d="M32.2254479,45.425 L39.5605569,45.425 L39.5605569,38.0440789 L32.2254479,38.0440789 L32.2254479,45.425 Z M33.532954,39.3598684 L38.2530508,39.3598684 L38.2530508,44.1092105 L33.532954,44.1092105 L33.532954,39.3598684 Z" id="Shape"></path>
                        <path d="M5.9720339,45.425 L13.3071429,45.425 L13.3071429,38.0440789 L5.9720339,38.0440789 L5.9720339,45.425 L5.9720339,45.425 Z M7.27953995,39.3598684 L11.9996368,39.3598684 L11.9996368,44.1092105 L7.27953995,44.1092105 L7.27953995,39.3598684 L7.27953995,39.3598684 Z" id="Shape"></path>
                        <path d="M14.7231719,45.425 L22.0576271,45.425 L22.0576271,38.0440789 L14.7231719,38.0440789 L14.7231719,45.425 Z M16.030678,39.3598684 L20.7501211,39.3598684 L20.7501211,44.1092105 L16.030678,44.1092105 L16.030678,39.3598684 Z" id="Shape"></path>
                    </g>
                </g>
            </g>
        </g>
    </g>
</svg>