<?xml version="1.0" encoding="UTF-8"?>
<svg width="50px" height="50px" viewBox="0 0 50 50" version="1.1" xmlns="http://www.w3.org/2000/svg" xmlns:xlink="http://www.w3.org/1999/xlink">
    <!-- Generator: Sketch 43.2 (39069) - http://www.bohemiancoding.com/sketch -->
    <title>church</title>
    <desc>Created with Sketch.</desc>
    <defs></defs>
    <g id="Page-1" stroke="none" stroke-width="1" fill="none" fill-rule="evenodd">
        <g id="lisadaniel.se" transform="translate(-505.000000, -665.000000)" fill-rule="nonzero" fill="#000000">
            <g id="Vi-gifter-oss" transform="translate(400.000000, 179.000000)">
                <g id="Group-2" transform="translate(105.000000, 486.000000)">
                    <g id="church">
                        <path d="M21.8092593,27.332716 L27.6148148,27.332716 C27.9561728,27.332716 28.2320988,27.0567901 28.2320988,26.7154321 L28.2320988,22.2641975 C28.2320988,20.3228395 26.6530864,18.7438272 24.7123457,18.7438272 C22.7716049,18.7438272 21.1919753,20.3234568 21.1919753,22.2641975 L21.1919753,26.7154321 C21.1919753,27.0567901 21.4679012,27.332716 21.8092593,27.332716 Z M22.4265432,22.2641975 C22.4265432,21.0037037 23.4518519,19.9783951 24.7123457,19.9783951 C25.9722222,19.9783951 26.9975309,21.0037037 26.9975309,22.2641975 L26.9975309,26.0981481 L22.4265432,26.0981481 L22.4265432,22.2641975 Z" id="Shape"></path>
                        <path d="M25.3296296,9.89814815 L25.3296296,7.34876543 L26.2938272,7.34876543 C26.6351852,7.34876543 26.9111111,7.07283951 26.9111111,6.73148148 C26.9111111,6.39012346 26.6351852,6.11419753 26.2938272,6.11419753 L25.3296296,6.11419753 L25.3296296,4.84320988 C25.3296296,4.50185185 25.0537037,4.22592593 24.7123457,4.22592593 C24.3709877,4.22592593 24.0950617,4.50185185 24.0950617,4.84320988 L24.0950617,6.11419753 L23.154321,6.11419753 C22.812963,6.11419753 22.537037,6.39012346 22.537037,6.73148148 C22.537037,7.07283951 22.812963,7.34876543 23.154321,7.34876543 L24.0950617,7.34876543 L24.0950617,9.89814815 C24.0950617,10.2395062 24.3709877,10.5154321 24.7123457,10.5154321 C25.0537037,10.5154321 25.3296296,10.2395062 25.3296296,9.89814815 Z" id="Shape"></path>
                        <path d="M22.287037,43.017284 C22.6283951,43.017284 22.904321,42.741358 22.904321,42.4 L22.904321,40.8567901 C22.904321,40.5154321 22.6283951,40.2395062 22.287037,40.2395062 C21.945679,40.2395062 21.6697531,40.5154321 21.6697531,40.8567901 L21.6697531,42.4 C21.6697531,42.7407407 21.9462963,43.017284 22.287037,43.017284 Z" id="Shape"></path>
                        <path d="M27.1611111,40.2395062 C26.8197531,40.2395062 26.5438272,40.5154321 26.5438272,40.8567901 L26.5438272,42.4 C26.5438272,42.741358 26.8197531,43.017284 27.1611111,43.017284 C27.5024691,43.017284 27.7783951,42.741358 27.7783951,42.4 L27.7783951,40.8567901 C27.7783951,40.5154321 27.5024691,40.2395062 27.1611111,40.2395062 Z" id="Shape"></path>
                        <path d="M0.694444444,49.382716 L8.66111111,49.382716 C8.66234568,49.382716 8.66296296,49.3833333 8.66419753,49.3833333 C8.6654321,49.3833333 8.66604938,49.382716 8.66728395,49.382716 L40.8697531,49.382716 C40.8709877,49.382716 40.8716049,49.3833333 40.8728395,49.3833333 C40.8740741,49.3833333 40.8746914,49.382716 40.8759259,49.382716 L48.8425926,49.382716 C49.1839506,49.382716 49.4598765,49.1067901 49.4598765,48.7654321 L49.4598765,33.1018519 C49.4598765,32.8654321 49.3246914,32.65 49.1123457,32.5469136 L41.4901235,28.8481481 L41.4901235,21.5703704 L45.3228395,23.4037037 C45.4092593,23.4444444 45.4993827,23.4641975 45.5888889,23.4641975 C45.8191358,23.4641975 46.0401235,23.3345679 46.1462963,23.1135802 C46.2932099,22.8061728 46.162963,22.437037 45.8555556,22.2901235 L35.4074074,17.2919753 L35.4074074,6.39012346 L37.4074074,7.34691358 C37.4938272,7.3882716 37.5845679,7.40740741 37.6734568,7.40740741 C37.9037037,7.40740741 38.1246914,7.27777778 38.2308642,7.05679012 C38.3777778,6.74938272 38.2475309,6.38024691 37.9401235,6.23333333 L25.0345679,0.0604938272 C24.8660494,-0.0203703704 24.6703704,-0.0203703704 24.5018519,0.0604938272 L11.5962963,6.23333333 C11.2888889,6.38024691 11.158642,6.74938272 11.3055556,7.05679012 C11.4524691,7.36419753 11.8191358,7.49382716 12.1290123,7.34753086 L14.0814815,6.41358025 L14.0814815,17.3148148 L3.6808642,22.2888889 C3.37345679,22.4358025 3.24320988,22.8049383 3.39012346,23.1123457 C3.53703704,23.4191358 3.9037037,23.5487654 4.21358025,23.4030864 L8.0462963,21.5697531 L8.0462963,28.8574074 L0.412345679,32.7839506 C0.20617284,32.8901235 0.0771604938,33.1018519 0.0771604938,33.3333333 L0.0771604938,48.7654321 C0.0771604938,49.1067901 0.35308642,49.382716 0.694444444,49.382716 Z M41.4901235,30.2197531 L48.2253086,33.4882716 L48.2253086,48.1481481 L41.4901235,48.1481481 L41.4901235,30.2197531 Z M24.1117284,48.1481481 L19.3796296,48.1481481 L19.3796296,37.617284 C19.3796296,34.8975309 21.4592593,32.6549383 24.1117284,32.3944444 L24.1117284,48.1481481 L24.1117284,48.1481481 Z M29.8759259,48.1481481 L25.345679,48.1481481 L25.345679,32.4240741 C27.9,32.7765432 29.8759259,34.9679012 29.8759259,37.6179012 L29.8759259,48.1481481 Z M15.3160494,5.82283951 L24.7679012,1.30185185 L34.1722222,5.8 L34.1722222,16.7018519 L25.0339506,12.3314815 C24.8654321,12.2506173 24.6697531,12.2506173 24.5012346,12.3314815 L15.3154321,16.7246914 L15.3154321,5.82283951 L15.3160494,5.82283951 Z M9.28148148,20.9796296 L24.7685185,13.5722222 L40.2555556,20.9796296 L40.2555556,48.1481481 L31.1104938,48.1481481 L31.1104938,37.617284 C31.1104938,34.0425926 28.2018519,31.1339506 24.6271605,31.1339506 C21.0524691,31.1339506 18.1450617,34.0425926 18.1450617,37.617284 L18.1450617,48.1481481 L9.28148148,48.1481481 L9.28148148,20.9796296 Z M1.3117284,33.7098765 L8.04691358,30.245679 L8.04691358,48.1481481 L1.3117284,48.1481481 L1.3117284,33.7098765 Z" id="Shape"></path>
                    </g>
                </g>
            </g>
        </g>
    </g>
</svg>