<?xml version="1.0" encoding="UTF-8"?>
<svg width="50px" height="50px" viewBox="0 0 50 50" version="1.1" xmlns="http://www.w3.org/2000/svg" xmlns:xlink="http://www.w3.org/1999/xlink">
    <title>mansion</title>
    <g id="Page-1" stroke="none" stroke-width="1" fill="none" fill-rule="evenodd">
        <g id="lisadaniel.se" transform="translate(-505.000000, -664.000000)" fill="#000000" fill-rule="nonzero">
            <g id="Vi-gifter-oss" transform="translate(400.000000, 179.000000)">
                <g id="mansion" transform="translate(105.000000, 485.000000)">
                    <path d="M49.3738749,5.62507205 L42.4986615,5.62507205 L42.4986615,3.75004446 L43.1239429,3.75004446 C43.2896839,3.75004446 43.4487176,3.68391599 43.5659117,3.56673105 C43.6831058,3.44954611 43.7488064,3.29050199 43.7488064,3.12476026 L43.7488064,0.624866337 C43.7488064,0.459124613 43.6830972,0.30009013 43.5659117,0.182895548 C43.4487262,0.0657009667 43.2896839,0 43.1239429,0 L41.8737872,0 C41.5284944,0 41.2489236,0.279582685 41.2489236,0.624866337 C41.2489236,0.970149989 41.5285051,1.24973267 41.8737872,1.24973267 L42.4986507,1.24973267 L42.4986507,2.49989393 L36.2487294,2.49989393 L36.2487294,1.24973267 L39.3739044,1.24973267 C39.7187793,1.24973267 39.9987679,0.970149989 39.9987679,0.624866337 C39.9987679,0.279582685 39.7187686,0 39.3739044,0 L35.6238659,0 C35.278573,0 34.9985844,0.279582685 34.9985844,0.624866337 L34.9985844,3.12476026 C34.9985844,3.29050199 35.0647126,3.44953647 35.181897,3.56673105 C35.2990815,3.68392563 35.4581249,3.75004446 35.6238659,3.75004446 L36.2487294,3.75004446 L36.2487294,5.62507205 L32.4986909,5.62507205 C32.1533981,5.62507205 31.8738273,5.90465474 31.8738273,6.24993839 C31.8738273,6.59522204 32.1534088,6.87480473 32.4986909,6.87480473 L48.7492149,6.87480473 L48.7492149,19.3753458 L42.7579391,19.3753458 L25.4413327,2.05866243 C25.1973338,1.81466242 24.801394,1.81466242 24.5573951,2.05866243 L7.24078865,19.3753458 L1.24951283,19.3753458 L1.24951283,6.87480473 L17.5000369,6.87480473 C17.8453297,6.87480473 18.1249004,6.59522204 18.1249004,6.24993839 C18.1249004,5.90465474 17.845319,5.62507205 17.5000369,5.62507205 L0.62486356,5.62507205 C0.279570728,5.62507205 0,5.90465474 0,6.24993839 L0,19.9997836 C0,20.1655253 0.0657092463,20.3245598 0.182894735,20.4417544 C0.300080225,20.5589489 0.459122572,20.6250678 0.62486356,20.6250678 L1.24972712,20.6250678 L1.24972712,49.3751337 C1.24972712,49.5408754 1.3158553,49.6999099 1.43303972,49.8171045 C1.55022414,49.934299 1.70926755,50 1.87500854,50 L48.1247692,50 C48.2905102,50 48.449544,49.9342905 48.5667381,49.8171045 C48.6839321,49.6999184 48.7500507,49.5408754 48.7500507,49.3751337 L48.7500507,22.5000954 C48.7500507,22.154801 48.4700514,21.8748112 48.1247692,21.8748112 C47.7798943,21.8748112 47.4999057,22.1548117 47.4999057,22.5000954 L47.4999057,48.7504816 L33.1244009,48.7504816 L33.1244009,46.875454 C33.1244009,46.7097123 33.0586917,46.5506778 32.9415062,46.4334832 C32.8243207,46.3162887 32.6652783,46.2501698 32.4995373,46.2501698 L25.6243239,46.2501698 L25.6243239,38.7500595 C25.6243239,38.405183 25.3447424,38.1251931 24.9994603,38.1251931 C24.6541782,38.1251931 24.3745968,38.4051937 24.3745968,38.7500595 L24.3745968,46.2501698 L19.9992661,46.2501698 L19.9992661,37.5003268 L29.9996545,37.5003268 L29.9996545,44.3751422 C29.9996545,44.7204366 30.279236,45.0004264 30.6245181,45.0004264 C30.9698002,45.0004264 31.2493816,44.7204259 31.2493816,44.3751422 L31.2493816,36.8750319 C31.2493816,36.7092902 31.1836724,36.5502557 31.0664869,36.4330611 C30.9493014,36.3158665 30.7902591,36.2501655 30.6245181,36.2501655 L19.3744025,36.2501655 C19.0291097,36.2501655 18.749539,36.5301661 18.749539,36.8750319 L18.749539,46.2501698 L17.4993833,46.2501698 C17.1540905,46.2501698 16.8745197,46.5301704 16.8745197,46.875454 L16.8745197,48.7504816 L2.49901495,48.7504816 L2.49901495,20.6250678 L7.49920916,20.6250678 C7.5159504,20.6250678 7.53059912,20.6242306 7.54441105,20.6229751 L7.54399255,20.6229751 C7.69382266,20.6125117 7.83486696,20.5480576 7.9411752,20.441751 L24.9995647,3.38328575 L42.0579541,20.441751 C42.1751482,20.5589456 42.334182,20.6250644 42.499923,20.6250644 L49.3751364,20.6250644 C49.5408774,20.6250644 49.6999112,20.558936 49.8171053,20.441751 C49.9342993,20.3245661 50,20.165522 50,19.9997802 L50,6.24993507 C50,6.08419335 49.9342908,5.92515886 49.8171053,5.80796428 C49.6999198,5.6907697 49.5408774,5.62506873 49.3751364,5.62506873 L49.3738749,5.62507205 Z M41.2489343,5.62507205 L37.4988958,5.62507205 L37.4988958,3.75004446 L41.2489343,3.75004446 L41.2489343,5.62507205 Z M18.1229826,47.5003311 L31.8738381,47.5003311 L31.8738381,48.7504923 L18.1229826,48.7504923 L18.1229826,47.5003311 Z M29.3730981,13.1251824 C29.3730981,11.9645939 28.9122934,10.8516847 28.0919778,10.0313869 C27.2712336,9.21106768 26.1583508,8.74983232 24.998196,8.74983232 C23.8380412,8.74983232 22.725137,9.21105696 21.9044142,10.0313869 C21.0840987,10.8517061 20.6232939,11.9645939 20.6232939,13.1251824 C20.6232939,14.2853423 21.0840987,15.3982516 21.9044142,16.2185494 C22.7251584,17.0392971 23.8380412,17.5001039 24.998196,17.5001039 C26.1579222,17.4988483 27.2699693,17.0376257 28.0902635,16.2172636 C28.9105576,15.3969016 29.3718124,14.2849138 29.3730981,13.1251824 Z M25.6230381,10.0632088 L25.6230381,10.0627903 C26.2232372,10.1866707 26.7735714,10.4834179 27.2067544,10.9166028 C27.6399374,11.3493699 27.9366726,11.9001566 28.0601346,12.4998761 L25.6230381,12.4998761 L25.6230381,10.0632088 Z M25.6230596,13.7500488 L28.060156,13.7500488 C27.9366941,14.3498111 27.6399481,14.9005657 27.2067758,15.3337506 C26.7736035,15.7669356 26.2232265,16.0636721 25.6230596,16.1871346 L25.6230596,13.7500488 Z M24.3729039,16.187156 L24.3733439,16.187156 C23.7731449,16.0636935 23.2228107,15.7669463 22.7896277,15.3337721 C22.3564446,14.9005978 22.0597094,14.3498004 21.9362475,13.7500702 L24.3733439,13.7500702 L24.3729039,16.187156 Z M24.3733225,12.4998875 L21.936226,12.4998875 C22.059688,11.9001251 22.3564339,11.3493706 22.7896062,10.9166142 C23.2227892,10.4834293 23.7731556,10.1866927 24.3733225,10.0628016 L24.3733225,12.4998875 Z M38.7477558,20.6252928 L11.2481877,20.6252928 C10.9028949,20.6252928 10.6229063,20.3452922 10.6229063,20.0000086 C10.6229063,19.6551321 10.9029056,19.3751422 11.2481877,19.3751422 L38.7477558,19.3751422 C39.0930487,19.3751422 39.3730373,19.6551428 39.3730373,20.0000086 C39.3730373,20.3453029 39.0930379,20.6252928 38.7477558,20.6252928 Z M21.2479333,26.8752419 L21.2479333,32.5003246 C21.2479333,32.6660664 21.3136425,32.8251009 21.430828,32.9422954 C21.5480135,33.05949 21.7070558,33.125191 21.8727968,33.125191 L28.1231467,33.125191 C28.2888877,33.125191 28.4479215,33.0594814 28.5651155,32.9422954 C28.6823096,32.8251094 28.7480103,32.6660664 28.7480103,32.5003246 L28.7480103,26.8752419 C28.7480103,25.5355079 28.0331565,24.2974539 26.872991,23.6274798 C25.7128362,22.9578271 24.2831073,22.9578271 23.1229525,23.6274798 C21.9627977,24.2975504 21.2479333,25.535615 21.2479333,26.8752419 Z M24.3731082,31.8754583 L22.4980889,31.8754583 L22.4980889,28.7502695 L24.3731082,28.7502695 L24.3731082,31.8754583 Z M24.3731082,27.5005368 L22.4980889,27.5001182 L22.4980889,26.8752518 C22.4985075,26.3211115 22.6830837,25.7829143 23.022505,25.3446936 C23.3615192,24.9069122 23.8365527,24.5938468 24.3730546,24.4544734 L24.3731082,27.5005368 Z M25.6232639,24.4544205 L25.6228453,24.4544205 C26.1594008,24.593794 26.6344342,24.9068593 26.9733949,25.3446408 C27.3128269,25.7828401 27.4973931,26.3210802 27.497811,26.875199 L27.497811,27.5000654 L25.6227917,27.5000654 L25.6232639,24.4544205 Z M25.6228453,28.7502695 L27.4978645,28.7502695 L27.4978645,31.8754583 L25.6228453,31.8754583 L25.6228453,28.7502695 Z M14.3727298,26.8752419 C14.3727298,25.5355079 13.6582938,24.2974539 12.4977105,23.6274798 C11.3375557,22.9578271 9.90825533,22.9578271 8.74767198,23.6274798 C7.58751721,24.2975504 6.87265273,25.535615 6.87265273,26.8752419 L6.87265273,32.5003246 C6.87265273,32.6660664 6.9387809,32.8251009 7.05596532,32.9422954 C7.17314974,33.05949 7.33219316,33.125191 7.49793415,33.125191 L13.7478555,33.125191 C13.9135965,33.125191 14.0726302,33.0594814 14.1898243,32.9422954 C14.3070184,32.8251094 14.3727298,32.6660664 14.3727298,32.5003246 L14.3727298,26.8752419 Z M9.99782768,31.8754583 L8.12280842,31.8754583 L8.12280842,28.7502695 L9.99782768,28.7502695 L9.99782768,31.8754583 Z M9.99782768,27.5005368 L8.12280842,27.5001182 L8.12280842,26.8752518 C8.12364543,26.3211115 8.30780318,25.7829143 8.64722452,25.3446936 C8.98665658,24.9069122 9.46169003,24.5938468 9.99777411,24.4544734 L9.99782768,27.5005368 Z M13.1230026,31.8754583 L11.2479834,31.8754583 L11.2479834,28.7502695 L13.1230026,28.7502695 L13.1230026,31.8754583 Z M13.1230026,27.5005368 L11.2479834,27.5001182 L11.2479834,24.4544305 C11.784121,24.593804 12.2591545,24.9068693 12.598533,25.3446507 C12.9375472,25.7828501 13.1221133,26.3210901 13.1229491,26.875209 L13.1230026,27.5005368 Z M43.1233107,26.8756705 L43.1233107,26.875252 C43.1233107,25.535518 42.408457,24.297464 41.2482915,23.6274899 C40.0877081,22.9578372 38.6584077,22.9578372 37.498253,23.6274899 C36.3376696,24.2975604 35.6232337,25.5356251 35.6232337,26.875252 L35.6232337,32.5003347 C35.6232337,32.6660764 35.688943,32.8251109 35.8061284,32.9423055 C35.9233139,33.0595001 36.0823563,33.1252011 36.2480973,33.1252011 L42.4980186,33.1252011 C42.6637596,33.1252011 42.8227934,33.0594915 42.9399874,32.9423055 C43.0571815,32.8251195 43.1233107,32.6660764 43.1233107,32.5003347 L43.1233107,26.8756705 Z M38.7484087,31.8758869 L36.8729608,31.8754684 L36.8729608,28.7502795 L38.7479801,28.7502795 L38.7484087,31.8758869 Z M38.7484087,27.5009654 L36.8729608,27.5001283 L36.8729608,26.8752619 C36.8737979,26.3211216 37.0583734,25.7829244 37.3973769,25.3447037 C37.736809,24.9069222 38.2118424,24.5938569 38.7479265,24.4544834 L38.7484087,27.5009654 Z M41.8735836,31.8758869 L39.9981358,31.8754684 L39.9981358,28.7502795 L41.873155,28.7502795 L41.8735836,31.8758869 Z M41.8735836,27.5009654 L39.9981358,27.5001283 L39.9981358,24.4544406 C40.5342734,24.5938141 41.0093069,24.9068794 41.3486854,25.3446608 C41.6881174,25.7828601 41.8722657,26.3211002 41.8731015,26.8752191 L41.8735836,27.5009654 Z M10.6229055,36.2503798 C9.62889889,36.2516355 8.67545695,36.6471464 7.97280688,37.349896 C7.26967466,38.0530314 6.87415274,39.0060275 6.87286701,40.000435 L6.87286701,45.6255178 C6.87286701,45.7912595 6.93899519,45.950294 7.05617961,46.0674886 C7.17336403,46.1846831 7.33240745,46.2503798 7.49814843,46.2503798 L13.7480698,46.2503798 C13.9138108,46.2503798 14.0728445,46.1846746 14.1900386,46.0674886 C14.3072326,45.9503026 14.3729333,45.7912595 14.3729333,45.6255178 L14.3729333,40.000435 C14.3720963,39.0060061 13.9765864,38.0529778 13.273422,37.349896 C12.5702898,36.6471785 11.6172979,36.2516656 10.6228948,36.2503798 L10.6229055,36.2503798 Z M9.99804197,45.0006514 L8.12302271,45.0006514 L8.12302271,41.8754626 L9.99804197,41.8754626 L9.99804197,45.0006514 Z M9.99804197,40.6257299 L8.12302271,40.6253113 L8.12302271,40.000445 C8.12385972,39.4463047 8.30801747,38.9081075 8.64743881,38.4698867 C8.98687087,38.0321053 9.46190432,37.71904 9.99798839,37.5796665 L9.99804197,40.6257299 Z M13.1232169,45.0006514 L11.2481977,45.0006514 L11.2481977,41.8754626 L13.1232169,41.8754626 L13.1232169,45.0006514 Z M13.1232169,40.6257299 L11.2481977,40.6253113 L11.2481977,37.5796236 C11.7843353,37.7189971 12.2593688,38.0320624 12.5987472,38.4698439 C12.9377614,38.9080432 13.1223276,39.4462832 13.1231633,40.0004021 L13.1232169,40.6257299 Z M36.2480973,46.2508127 L42.4980186,46.2503941 C42.6637596,46.2503941 42.8227934,46.1846845 42.9399874,46.0674985 C43.0571815,45.9503125 43.1233,45.7912695 43.1233,45.6255277 L43.1233,40.000445 C43.1233,38.660711 42.4084462,37.422657 41.2482808,36.7526829 C40.0876974,36.0830302 38.658397,36.0830302 37.4982422,36.7526829 C36.3376589,37.4227535 35.623223,38.6608181 35.623223,40.000445 L35.623223,45.6255277 C35.623223,45.7912695 35.6889322,45.9503039 35.8061177,46.0674985 C35.9233032,46.1846931 36.0823456,46.2503941 36.2480866,46.2503941 L36.2480973,46.2508127 Z M39.9981358,37.5796137 C40.5342734,37.7189872 41.0093069,38.0320525 41.3486854,38.4698339 C41.6881174,38.9080332 41.8722657,39.4462733 41.8731015,40.0003921 L41.8731015,40.6252585 L39.9980822,40.6252585 L39.9981358,37.5796137 Z M39.9981358,41.8754626 L41.873155,41.8754626 L41.873155,45.0006514 L39.9981358,45.0006514 L39.9981358,41.8754626 Z M36.8729608,40.000435 C36.8737979,39.4462947 37.0583734,38.9080975 37.3973769,38.4698768 C37.736809,38.0320953 38.2118424,37.71903 38.7479265,37.5796565 L38.7479265,40.6253442 L36.8729073,40.6253442 L36.8729608,40.000435 Z M36.8729608,41.8754626 L38.7479801,41.8754626 L38.7479801,45.0006514 L36.8729608,45.0006514 L36.8729608,41.8754626 Z M23.1231768,40.6253013 C23.2889177,40.6253013 23.4479515,40.6914298 23.5651456,40.8086148 C23.6823396,40.9257997 23.7480403,41.0848438 23.7480403,41.2505855 L23.7480403,42.5007468 L23.7480403,42.5003282 C23.7480403,42.8456225 23.4684589,43.1256124 23.1231768,43.1256124 C22.7778946,43.1256124 22.4983132,42.8456118 22.4983132,42.5003282 L22.4983132,41.2505955 C22.4983132,40.9053011 22.7778946,40.6253013 23.1231768,40.6253013 L23.1231768,40.6253013 Z M26.8732153,40.6253013 C27.0389563,40.6253013 27.19799,40.6914298 27.3151841,40.8086148 C27.4323782,40.9257997 27.4980788,41.0848438 27.4980788,41.2505855 L27.4980788,42.5007468 L27.4980788,42.5003282 C27.4980788,42.8456225 27.2184974,43.1256124 26.8732153,43.1256124 C26.5279332,43.1256124 26.2483517,42.8456118 26.2483517,42.5003282 L26.2483517,41.2505955 C26.2483517,40.9053011 26.5279332,40.6253013 26.8732153,40.6253013 L26.8732153,40.6253013 Z" id="Shape"></path>
                </g>
            </g>
        </g>
    </g>
</svg>